<svg version="1.1" xmlns="http://www.w3.org/2000/svg" style="display: block;" viewBox="0 0 2048 2048" width="1024" height="1024" preserveAspectRatio="none">
<path transform="translate(0,0)" fill="rgb(239,239,238)" d="M 356.3 515.483 C 354.448 480.522 357.105 443.365 355.72 408.194 C 355.084 392.025 355.452 373.536 368.2 361.888 C 378.52 352.458 385.575 347.932 400.13 347.876 L 541.29 347.916 C 562.461 347.917 586.784 347.139 607.823 349.046 C 613.82 350.664 621.168 357.354 625.415 361.431 C 640.821 376.219 636.951 408.34 636.966 428.517 L 636.94 515.194 C 778.861 518.625 920.864 514.812 1062.4 503.769 C 1140.27 498.644 1217.92 490.569 1295.18 479.563 C 1322.83 475.802 1351.19 472.44 1378.61 467.389 C 1407.21 462.119 1435.77 456.226 1464.29 450.524 C 1451.51 458.016 1439.19 467.535 1426.82 475.853 C 1372.4 512.473 1323.61 555.806 1270.74 594.649 C 1237.83 618.828 1206.67 644.543 1172.21 666.971 C 1082.51 725.345 984.887 768.777 877.651 780.461 C 818.079 786.739 755.321 782.799 695.417 784.194 C 676.322 784.639 655.223 783.021 636.444 784.776 L 635.128 784.911 C 635.416 794.354 633.959 822.048 636.965 829.212 C 636.66 906.044 635.56 992.076 638.084 1068.05 C 643.346 1226.44 687.58 1592.78 863.332 1652.15 C 849.703 1654.65 782.073 1642.79 766.983 1638.67 C 641.018 1604.28 527.873 1528.34 452.31 1421.31 C 398.854 1345.58 373.665 1259.63 359.427 1168.94 C 355.828 1145.79 357.102 1116.78 356.775 1093.09 C 356.227 1047.88 355.922 1002.67 355.861 957.459 L 355.332 841.573 C 355.264 827.429 354.207 796.111 355.61 783.264 C 309.86 782.624 260.525 784.425 214.695 783.257 C 199.323 782.865 175.225 760.295 174.019 744.2 C 172.554 724.644 173.193 702.74 173.279 682.293 L 173.246 571.015 C 173.292 552.482 175.364 542.467 189.065 528.179 C 194.066 523.437 200.384 518.285 207.449 517.231 C 224.726 514.655 244.463 515.575 261.938 515.535 L 356.3 515.483 z"/>
<path transform="translate(0,0)" fill="rgb(30,188,227)" d="M 845.574 1226.22 C 867.734 1191.51 887.12 1153.58 909.111 1118.74 C 981.296 1004.37 1061.81 900.71 1156.99 804.362 C 1322.16 637.149 1520.61 491.183 1753.83 439.136 C 1779.75 433.355 1811.74 429.529 1838.4 425.362 C 1853.76 422.962 1873.98 422.769 1888.69 420.327 C 1843.37 452.481 1800.45 491.18 1758.04 527.273 C 1743.65 539.515 1730.8 553.472 1717.26 566.559 C 1659.18 622.025 1603.94 680.383 1551.74 741.41 C 1534.48 761.764 1519.7 780.998 1503.32 801.742 C 1416.93 911.543 1337.21 1026.43 1264.6 1145.79 C 1227.28 1208.2 1190.61 1270.99 1154.61 1334.15 C 1130.51 1376.96 1106.9 1420.04 1083.8 1463.39 C 1073.28 1482.7 1061.87 1501.67 1051.46 1520.76 L 1023.67 1572.79 C 997.635 1622.15 983.187 1644.08 927.334 1653.47 C 917.652 1655.1 870.8 1655.33 863.332 1652.15 C 687.58 1592.78 643.346 1226.44 638.084 1068.05 C 635.56 992.076 636.66 906.044 636.965 829.212 C 653.681 869.275 669.803 908.948 688.603 948.259 C 720.736 1015.45 757.617 1080.85 796.053 1144.65 C 811.836 1170.84 828.254 1201.53 845.574 1226.22 z"/>
</svg>